<?xml version="1.0" encoding="UTF-8" standalone="no"?>
<svg xmlns:rdf="http://www.w3.org/1999/02/22-rdf-syntax-ns#" xmlns="http://www.w3.org/2000/svg" enable-background="new 0 0 170 39.2" xml:space="preserve" viewBox="0 0 170 25" height="25" width="170" version="1.1" y="0px" x="0px" xmlns:cc="http://creativecommons.org/ns#" xmlns:dc="http://purl.org/dc/elements/1.1/"><metadata><rdf:RDF><cc:Work rdf:about=""><dc:format>image/svg+xml</dc:format><dc:type rdf:resource="http://purl.org/dc/dcmitype/StillImage"/><dc:title/></cc:Work></rdf:RDF></metadata><g fill="#1ee6fa"><path d="m5.8 24.6v-10.7c0-4.8 3.4-8 7.8-8 4.5 0 7.8 3.2 7.8 8v10.7h-3.4v-10.7c0-2.8-2.1-4.8-4.5-4.8s-4.5 2-4.5 4.8v10.7h-3.2z"/><path d="m33.8 9.5h-6.6v9.6c0 1.7 0.8 2.3 2.5 2.3h4v3.2h-4.5c-3.4 0-5.4-2.3-5.4-5.9v-18.5h3.4v6.1h6.6v3.2z"/><path d="m56.7 24.6v-12.4c0-3.6 2-5.9 5.4-5.9h3.5v3.2h-3c-1.7 0-2.5 0.6-2.5 2.3v12.8h-3.4z"/><path d="m39.3 19.3c1.1 1.5 2.8 2.5 4.9 2.5 4 0 5.4-2.4 6.1-5.7l3.4 0.4c-0.4 4.8-4.3 8.5-9.5 8.5-5.1 0-9.5-3.9-9.5-9.5s4.4-9.5 9.5-9.5c4.3 0 7.1 2.2 8.8 5.8l-13.7 7.5zm9.1-8.4c-1.1-1.1-2.1-1.8-4.2-1.8-3.5 0-6 2.6-6 6.3 0 0.3 0 0.7 0.1 1l10.1-5.5z"/><path d="m67.8 24.6v-24.4h3.4v24.4h-3.4z"/><path d="m89.3 6.3v10.7c0 4.8-3.4 8-7.8 8-4.5 0-7.8-3.2-7.8-8v-10.7h3.3v10.7c0 2.8 2.1 4.8 4.5 4.8s4.5-2 4.5-4.8v-10.7h3.3z"/><path d="m101.7 9.5h-6.5v9.6c0 1.7 0.8 2.3 2.5 2.3h4v3.2h-4.5c-3.4 0-5.4-2.3-5.4-5.9v-18.5h3.4v6.1h6.5v3.2z"/><path d="m104.1 24.6v-18.3h3.4v18.3h-3.4z"/><path d="m119.2 5.9c5.1 0 9.5 3.9 9.5 9.5s-4.4 9.5-9.5 9.5-9.5-3.9-9.5-9.5 4.4-9.5 9.5-9.5zm0 15.9c3.5 0 6-2.6 6-6.3s-2.5-6.3-6-6.3-6 2.6-6 6.3 2.5 6.3 6 6.3z"/><path d="m130.9 24.6v-10.7c0-4.8 3.4-8 7.8-8 4.5 0 7.8 3.2 7.8 8v10.7h-3.3v-10.7c0-2.8-2.1-4.8-4.5-4.8s-4.5 2-4.5 4.8v10.7h-3.3z"/><path d="m0 24.6v-24.4h3.4v24.4h-3.4z"/><path d="m157.4 14.4s-0.1 0-0.1-0.1h-0.1c-1.9-0.8-4.5-1.3-4.4-3.2 0.1-1.3 1.1-2 2.8-2.1 1.4 0 2.7 0.6 3.8 1.9l2.8-1.7c-1.5-2.1-3.9-3.3-6.2-3.3h-0.1-0.2c-3.9 0-6 2-6.2 5-0.1 2.8 1.8 4.3 4.5 5.4 0 0 0.3 0.1 0.5 0.2 0 0 0.1 0 0.1 0.1h0.1c2 0.8 3.6 1.2 3.6 3.1 0 1.3-1.4 2-3 2.1-1.8 0-3.4-0.7-4.4-1.9l-2.8 1.7c1.8 2.4 4.3 3.3 7 3.3h0.1 0.2c3.9 0 6.2-2.2 6.2-5.3 0-2.9-1.6-4.2-4.2-5.2z"/><circle cy="22.7" cx="167.7" r="2.2"/></g></svg>
